<svg xmlns="http://www.w3.org/2000/svg" xmlns:xlink="http://www.w3.org/1999/xlink" viewBox="0 0 280 250" preserveAspectRatio="xMidYMid" style="display: block; shape-rendering: auto; background: transparent;" width="280" height="250"><style type="text/css">
  .ld-text text {
    text-anchor: middle;
    dominant-baseline: middle;
    font-size: 80px;
    opacity: 0;
    user-select: none;
    pointer-events: none;
  }
</style>
<g style="transform-origin:140px 125px;transform:scale(1)" class="ld-text">
<g transform="translate(140,125)">
  <g transform="scale(1.0000) translate(0,0)"><g class="path" style="opacity: 1; animation: 1s linear -0.55s infinite normal forwards running animate-z2mq737uswr; transform-box: view-box; transform-origin: -70.28px -2.62px;"><path d="M13.76 0.91L13.76 43.15L24.56 43.15Q28.96 43.15 32.84 42.03Q36.72 40.91 39.64 38.39Q42.56 35.87 44.24 31.79Q45.92 27.71 45.92 21.87L45.92 21.87Q45.92 16.43 44.40 12.47Q42.88 8.51 40.12 5.95Q37.36 3.39 33.40 2.15Q29.44 0.91 24.56 0.91L24.56 0.91L13.76 0.91 zM7.04 49.31L7.04-5.25L24.56-5.25Q31.04-5.25 36.28-3.65Q41.52-2.05 45.28 1.31Q49.04 4.67 51.08 9.79Q53.12 14.91 53.12 21.87L53.12 21.87Q53.12 28.91 50.88 34.07Q48.64 39.23 44.80 42.63Q40.96 46.03 35.76 47.67Q30.56 49.31 24.56 49.31L24.56 49.31L7.04 49.31" style="fill: rgb(255, 109, 31);" transform="translate(-100.360,-24.653)"></path></g><g class="path" style="opacity: 1; animation: 1s linear -0.44s infinite normal forwards running animate-z2mq737uswr; transform-box: view-box; transform-origin: -25px 4.66px;"><path d="M84.80 39.95L84.80 30.83Q83.20 30.91 81.76 30.99Q80.32 31.07 78.92 31.19Q77.52 31.31 76.40 31.47L76.40 31.47Q70.64 32.19 68.24 33.99Q65.84 35.79 65.84 39.15L65.84 39.15Q65.84 41.95 67.56 43.35Q69.28 44.75 72.08 44.75L72.08 44.75Q75.92 44.75 78.92 43.43Q81.92 42.11 84.80 39.95L84.80 39.95 zM85.52 49.95L84.72 45.55Q80.96 47.71 77.72 49.03Q74.48 50.35 70.72 50.35L70.72 50.35Q65.36 50.35 62.20 47.75Q59.04 45.15 59.04 39.15L59.04 39.15Q59.04 36.03 60.64 33.71Q62.24 31.39 64.84 29.83Q67.44 28.27 70.72 27.39Q74 26.51 77.44 26.27L77.44 26.27Q78.88 26.11 81.20 25.99Q83.52 25.87 84.80 25.79L84.80 25.79Q84.80 22.99 84.64 20.79Q84.48 18.59 83.68 17.03Q82.88 15.47 81.32 14.67Q79.76 13.87 76.88 13.87L76.88 13.87Q74.56 13.87 72.40 14.15Q70.24 14.43 68.56 14.75L68.56 14.75Q66.56 15.15 64.88 15.63L64.88 15.63L63.60 10.11Q65.60 9.63 67.92 9.23L67.92 9.23Q69.92 8.83 72.56 8.55Q75.20 8.27 78.24 8.27L78.24 8.27Q82.32 8.27 84.84 9.47Q87.36 10.67 88.76 12.71Q90.16 14.75 90.68 17.35Q91.20 19.95 91.20 22.83L91.20 22.83L91.20 42.03Q91.20 43.15 91.24 44.39Q91.28 45.63 91.40 46.83Q91.52 48.03 91.68 49.31L91.68 49.31L85.52 49.95" style="fill: rgb(255, 109, 31);" transform="translate(-100.360,-24.653)"></path></g><g class="path" style="opacity: 1; animation: 1s linear -0.33s infinite normal forwards running animate-z2mq737uswr; transform-box: view-box; transform-origin: 5.32px -5.66px;"><path d="M102.48 49.31L102.48-10.61L108.88-11.33L108.88 49.31L102.48 49.31" style="fill: rgb(255, 109, 31);" transform="translate(-100.360,-24.653)"></path></g><g class="path" style="opacity: 1; animation: 1s linear -0.22s infinite normal forwards running animate-z2mq737uswr; transform-box: view-box; transform-origin: 34.8px 4.66px;"><path d="M148.96 42.99L150.16 48.35Q148.32 48.91 146.36 49.31Q144.40 49.71 142.04 50.03Q139.68 50.35 137.12 50.35L137.12 50.35Q133.12 50.35 129.68 49.23Q126.24 48.11 123.68 45.63Q121.12 43.15 119.64 39.19Q118.16 35.23 118.16 29.47L118.16 29.47Q118.16 24.27 119.60 20.31Q121.04 16.35 123.56 13.67Q126.08 10.99 129.48 9.63Q132.88 8.27 136.88 8.27L136.88 8.27Q140.80 8.27 143.68 9.79Q146.56 11.31 148.44 13.91Q150.32 16.51 151.24 19.99Q152.16 23.47 152.16 27.31L152.16 27.31L150.96 30.83L125.12 30.83Q125.12 33.31 125.76 35.79Q126.40 38.27 127.96 40.27Q129.52 42.27 132.04 43.51Q134.56 44.75 138.32 44.75L138.32 44.75Q140.72 44.75 142.72 44.47Q144.72 44.19 146.20 43.83Q147.68 43.47 148.96 42.99L148.96 42.99 zM125.36 25.71L145.52 25.71Q145.52 25.15 145.28 23.23Q145.04 21.31 144.16 19.23Q143.28 17.15 141.44 15.51Q139.60 13.87 136.56 13.87L136.56 13.87Q133.20 13.87 131.04 15.27Q128.88 16.67 127.60 18.59Q126.32 20.51 125.84 22.51Q125.36 24.51 125.36 25.71L125.36 25.71" style="fill: rgb(255, 109, 31);" transform="translate(-100.360,-24.653)"></path></g><g class="path" style="opacity: 1; animation: 1s linear -0.11s infinite normal forwards running animate-z2mq737uswr; transform-box: view-box; transform-origin: 75.28px 4.66px;"><path d="M189.44 42.99L190.64 48.35Q188.80 48.91 186.84 49.31Q184.88 49.71 182.52 50.03Q180.16 50.35 177.60 50.35L177.60 50.35Q173.60 50.35 170.16 49.23Q166.72 48.11 164.16 45.63Q161.60 43.15 160.12 39.19Q158.64 35.23 158.64 29.47L158.64 29.47Q158.64 24.27 160.08 20.31Q161.52 16.35 164.04 13.67Q166.56 10.99 169.96 9.63Q173.36 8.27 177.36 8.27L177.36 8.27Q181.28 8.27 184.16 9.79Q187.04 11.31 188.92 13.91Q190.80 16.51 191.72 19.99Q192.64 23.47 192.64 27.31L192.64 27.31L191.44 30.83L165.60 30.83Q165.60 33.31 166.24 35.79Q166.88 38.27 168.44 40.27Q170 42.27 172.52 43.51Q175.04 44.75 178.80 44.75L178.80 44.75Q181.20 44.75 183.20 44.47Q185.20 44.19 186.68 43.83Q188.16 43.47 189.44 42.99L189.44 42.99 zM165.84 25.71L186 25.71Q186 25.15 185.76 23.23Q185.52 21.31 184.64 19.23Q183.76 17.15 181.92 15.51Q180.08 13.87 177.04 13.87L177.04 13.87Q173.68 13.87 171.52 15.27Q169.36 16.67 168.08 18.59Q166.80 20.51 166.32 22.51Q165.84 24.51 165.84 25.71L165.84 25.71" style="fill: rgb(255, 109, 31);" transform="translate(-100.360,-24.653)"></path></g><g class="path" style="opacity: 1; animation: 1s linear 0s infinite normal forwards running animate-z2mq737uswr; transform-box: view-box; transform-origin: 104.2px -5.66px;"><path d="M201.36 49.31L201.36-10.61L207.76-11.33L207.76 49.31L201.36 49.31" style="fill: rgb(255, 109, 31);" transform="translate(-100.360,-24.653)"></path></g></g><text dy="0.35em" fill="#ff6d1f" font-family="Actor" font-size="80">Daleel</text>
</g>
</g><style type="text/css">@keyframes animate-z2mq737uswr { 0.00% {animation-timing-function: cubic-bezier(0.33,0.00,0.67,0.00);transform: translate(0.00px,0.00px) rotate(0.00deg) scale(1.00, 1.00) skew(0deg, 0.00deg) ;opacity: 1.00;}48.00% {transform: translate(0.00px,0.00px) rotate(0.00deg) ;opacity: 1.00;}50.00% {animation-timing-function: cubic-bezier(0.33,0.00,0.67,0.00);transform: translate(0.00px,0.00px) rotate(0.00deg) ;opacity: 0.00;}100.00% {animation-timing-function: cubic-bezier(0.33,0.00,0.67,0.00);transform: translate(0.00px,0.00px) rotate(0.00deg) ;opacity: 0.00;} }</style><!-- [ldio] generated by https://loading.io --></svg>